<?xml version="1.0" encoding="UTF-8"?>
<svg version="1.1" xmlns="http://www.w3.org/2000/svg" width="560" height="614">
<path d="M0 0 C2.7641455 2.7641455 2.36575087 4.59865272 2.5625 8.46875 C2.67464844 10.40814453 2.67464844 10.40814453 2.7890625 12.38671875 C2.89634981 14.44732407 3.00040802 16.50807836 3.10449219 18.56884766 C3.20799258 20.55671991 3.32258453 22.54400495 3.4375 24.53125 C3.49808594 25.72298828 3.55867188 26.91472656 3.62109375 28.14257812 C3.72226961 31.12761564 3.72226961 31.12761564 6 33 C5.34 33 4.68 33 4 33 C4.11339204 35.64680904 4.24012873 38.29177518 4.375 40.9375 C4.4059375 41.69224609 4.436875 42.44699219 4.46875 43.22460938 C4.5726315 45.15507395 4.77895614 47.07942081 5 49 C5.66 49.33 6.32 49.66 7 50 C7.3503418 51.94018555 7.3503418 51.94018555 7.51171875 54.44921875 C7.93703833 59.6633218 8.76958567 64.68971288 9.8125 69.8125 C9.98555664 70.67472168 10.15861328 71.53694336 10.33691406 72.42529297 C11.6247267 78.64507996 13.25138626 84.63684043 15.265625 90.6640625 C16 93 16 93 16 95 C16.99 95.33 17.98 95.66 19 96 C19.10570312 97.17175781 19.21140625 98.34351562 19.3203125 99.55078125 C23.4912706 132.43496126 55.58052153 170.20937642 81 190 C81.99 190.33 82.98 190.66 84 191 C85.67677177 192.65649992 87.3416339 194.3250739 89 196 C91.20436574 197.84241347 93.49484965 199.55315976 95.8125 201.25 C96.45977051 201.72453613 97.10704102 202.19907227 97.77392578 202.68798828 C104.29485295 207.36859619 111.17825321 211.2701277 118.24511719 215.05712891 C120.67884234 216.36473137 123.089071 217.71343785 125.5 219.0625 C126.66640312 219.70880919 127.83294108 220.35487576 129 221 C128.83761904 220.02743696 128.67523808 219.05487392 128.50793648 218.05283928 C127.89644229 213.74365734 127.86089647 209.50065987 127.87301636 205.15457153 C127.87145637 204.28766658 127.86989638 203.42076162 127.86828911 202.52758682 C127.86431461 199.63572395 127.86745491 196.743914 127.87060547 193.85205078 C127.86924992 191.77384918 127.86746911 189.69564781 127.86529541 187.6174469 C127.86074114 181.98367043 127.86250195 176.34991229 127.8656745 170.7161355 C127.86820642 164.82425544 127.86585842 158.93237695 127.86428833 153.04049683 C127.86246993 143.15297158 127.86486521 133.2654538 127.86962891 123.37792969 C127.87507992 111.93127919 127.87330147 100.48464648 127.8678025 89.03799641 C127.86327275 79.21711262 127.86261987 69.39623419 127.86524117 59.57534969 C127.86680354 53.7062678 127.8669986 47.8371943 127.86370468 41.96811295 C127.86082766 36.45731963 127.8627985 30.9465494 127.86859894 25.43575859 C127.86992706 23.407576 127.86953154 21.37939148 127.86733627 19.35120964 C127.86462705 16.59528858 127.86800297 13.8394428 127.87301636 11.08352661 C127.87078564 10.2702242 127.86855491 9.45692179 127.86625659 8.61897385 C127.88584956 3.11415044 127.88584956 3.11415044 129 2 C130.33441543 1.90368841 131.67388671 1.8762802 133.01177311 1.87695217 C133.88112966 1.87496112 134.7504862 1.87297007 135.64618689 1.87091869 C136.61212017 1.87383153 137.57805346 1.87674437 138.57325745 1.87974548 C139.59091641 1.87889106 140.60857537 1.87803663 141.65707248 1.87715632 C145.0950482 1.87549845 148.53297599 1.88102788 151.97094727 1.88647461 C154.42426553 1.88675644 156.87758388 1.88659883 159.3309021 1.8860321 C164.62711271 1.88580378 169.92330818 1.88865518 175.21951485 1.89426994 C182.87702293 1.90238277 190.53452506 1.90499994 198.19203698 1.90625793 C210.61460029 1.9084488 223.03715705 1.91510981 235.4597168 1.92456055 C247.53002896 1.93373378 259.60033935 1.94081505 271.6706543 1.94506836 C272.41415347 1.94533108 273.15765265 1.94559381 273.9236821 1.94586449 C277.6534452 1.94716949 281.38320831 1.94843321 285.11297143 1.94967639 C316.07531905 1.96005007 347.03765853 1.97774344 378 2 C379.29079653 4.58159306 379.11607336 6.40202473 379.10411072 9.29483032 C379.1007274 11.01004411 379.1007274 11.01004411 379.09727573 12.75990868 C379.08958636 14.0387726 379.08189699 15.31763653 379.07397461 16.63525391 C379.06927581 18.01376011 379.06502525 19.3922679 379.06117916 20.77077675 C379.05162623 23.83805091 379.03877806 26.90528993 379.02369308 29.97254181 C378.99809085 35.21969542 378.98088044 40.46686207 378.96414185 45.71405029 C378.9232063 58.08804879 378.87064121 70.46199107 378.81640625 82.8359375 C378.81154418 83.94655312 378.80668211 85.05716874 378.8016727 86.20143938 C378.75561355 96.69439839 378.70887081 107.18735421 378.66066074 117.68030357 C378.59943087 131.0192978 378.54156903 144.35829783 378.48800808 157.69732511 C378.44982974 167.13654551 378.40788999 176.57574466 378.36312145 186.01493609 C378.33656871 191.63549358 378.31170939 197.25604684 378.29092598 202.87662888 C378.27142124 208.13167618 378.247297 213.38668137 378.21950912 218.64169121 C378.21011994 220.5731334 378.20245143 222.50458479 378.19658089 224.43604088 C378.18835511 227.05932565 378.17409068 229.68250767 378.15821838 232.30575562 C378.15724028 233.07934146 378.15626217 233.85292731 378.15525442 234.64995515 C378.11412819 239.88587181 378.11412819 239.88587181 377 241 C374.95757539 241.08910203 372.91202237 241.10684647 370.86767578 241.09765625 C370.22382211 241.09621864 369.57996843 241.09478104 368.91660404 241.09329987 C367.50593562 241.08951408 366.09527205 241.08340283 364.68462181 241.07530212 C362.41834709 241.06234584 360.152123 241.0553511 357.88581848 241.04992676 C354.64789658 241.04164598 351.40999644 241.03094714 348.17208862 241.01831055 C339.80615642 240.9865944 331.44020618 240.97391424 323.07421875 240.96875 C322.24774149 240.96820114 321.42126423 240.96765228 320.5697422 240.96708679 C300.70444355 240.95990921 280.85430068 241.34647491 261 242 C261.5261792 242.15968262 262.0523584 242.31936523 262.59448242 242.48388672 C273.11425299 245.72126347 283.30323866 249.32594698 293.25 254.0625 C294.09328857 254.46130371 294.93657715 254.86010742 295.80541992 255.27099609 C300.85349683 257.73667383 305.48406537 260.53295638 310.08105469 263.76342773 C312.0820761 265.16517097 312.0820761 265.16517097 315 266 C315 266.66 315 267.32 315 268 C315.55558594 268.24878906 316.11117188 268.49757813 316.68359375 268.75390625 C344.73993299 283.84660813 362.56736624 317.93935205 372 347 C373.18773956 351.07276252 374 354.71761817 374 359 C374.66 359.33 375.32 359.66 376 360 C382.29658219 381.9388855 379.39073531 408.32007299 379.30418181 430.8394227 C379.28519551 436.62754644 379.28364754 442.41567683 379.28010559 448.2038269 C379.2708487 459.12174784 379.24632269 470.0395767 379.21605712 480.95745742 C379.18231302 493.40521074 379.16597723 505.85296889 379.15097082 518.30075669 C379.11976611 543.86722182 379.06713181 569.43360571 379 595 C377.97519531 594.98839844 376.95039062 594.97679687 375.89453125 594.96484375 C374.533856 594.95545978 373.17317876 594.94636023 371.8125 594.9375 C371.13896484 594.92912109 370.46542969 594.92074219 369.77148438 594.91210938 C366.02619007 594.89383965 362.65642318 595.25811704 359 596 C356.6875 595.0625 356.6875 595.0625 355 594 C354.67 594.66 354.34 595.32 354 596 C351.69 595.34 349.38 594.68 347 594 C347.33 594.99 347.66 595.98 348 597 C346.7625 596.814375 345.525 596.62875 344.25 596.4375 C341.77516235 596.11507397 340.18686012 595.95328497 337.75 596.5625 C336 597 336 597 334.25 596.0625 C330.74807184 594.4088117 327.85426187 594.75133794 324 595 C323.34 595.66 322.68 596.32 322 597 C321.42781738 596.67475342 320.85563477 596.34950684 320.26611328 596.0144043 C317.86042058 594.93751858 316.35506875 594.75462889 313.7421875 594.76953125 C312.55689453 594.77243164 312.55689453 594.77243164 311.34765625 594.77539062 C310.53167969 594.78763672 309.71570313 594.79988281 308.875 594.8125 C308.05128906 594.81314453 307.22757812 594.81378906 306.37890625 594.81445312 C302.05308421 594.72995422 302.05308421 594.72995422 298 596 C295.9937811 595.70640699 293.99488234 595.36270588 292 595 C289.00347436 594.63337778 286.00249991 594.31359444 283 594 C282.67 594.99 282.34 595.98 282 597 C282 596.34 282 595.68 282 595 C279.69 594.67 277.38 594.34 275 594 C274.67 594.99 274.34 595.98 274 597 C274 596.34 274 595.68 274 595 C271.8537974 595.14029419 269.70803782 595.28738164 267.5625 595.4375 C266.36753906 595.51871094 265.17257812 595.59992187 263.94140625 595.68359375 C261.11429756 595.67656114 261.11429756 595.67656114 260 597 C258.66082739 596.69096017 257.32911682 596.34976758 256 596 C249.79103048 594.8724044 243.70405818 594.85874522 237.4050293 594.87060547 C236.25629837 594.86885315 235.10756744 594.86710083 233.92402649 594.86529541 C230.14074172 594.86090671 226.35750396 594.86380343 222.57421875 594.8671875 C219.94342541 594.86651384 217.31263212 594.86554329 214.68183899 594.86428833 C209.17680351 594.86247303 203.67178148 594.8648575 198.16674805 594.86962891 C191.79950154 594.87508383 185.43228699 594.87329741 179.06504124 594.8678025 C172.93491038 594.86272393 166.80479372 594.86325301 160.67466164 594.86618423 C158.06664844 594.86685292 155.45863443 594.86602711 152.85062218 594.86370468 C149.2163918 594.86117751 145.58222376 594.86501907 141.94799805 594.87060547 C140.86279877 594.86858124 139.77759949 594.86655701 138.65951538 594.86447144 C137.67401199 594.86729126 136.68850861 594.87011108 135.67314148 594.87301636 C134.38428559 594.8735819 134.38428559 594.8735819 133.0693922 594.87415886 C130.9370658 594.8680927 130.9370658 594.8680927 129 596 C128.07229175 571.0595484 127.86190209 546.15144472 127.89860606 521.19572401 C127.9049851 516.10164503 127.90545462 511.00756502 127.90663147 505.91348267 C127.9097029 496.32750697 127.91785796 486.74154309 127.92798096 477.15557253 C127.93927455 466.2166625 127.94468544 455.27775182 127.94967639 444.33883739 C127.9600456 421.89255178 127.97756119 399.44627656 128 377 C123.67628107 379.02633069 123.67628107 379.02633069 120 382 C118.31182002 382.91327769 116.60050509 383.78436931 114.875 384.625 C113.96492187 385.07101562 113.05484375 385.51703125 112.1171875 385.9765625 C111.41851562 386.31429688 110.71984375 386.65203125 110 387 C110 387.66 110 388.32 110 389 C109.071875 389.33 108.14375 389.66 107.1875 390 C98.53236193 393.7168234 91.17183814 400.56103067 83.99609375 406.53125 C82 408 82 408 80 408 C80 408.66 80 409.32 80 410 C78.35546875 411.69140625 78.35546875 411.69140625 76.1875 413.5625 C75.47980469 414.18253906 74.77210938 414.80257813 74.04296875 415.44140625 C72 417 72 417 69 418 C68.67 418.66 68.34 419.32 68 420 C67.67 420.66 67.34 421.32 67 422 C66.01 422.33 65.02 422.66 64 423 C63.71125 423.5775 63.4225 424.155 63.125 424.75 C61.62491215 427.7501757 59.36177782 429.63822218 57 432 C55.70480005 434.16620544 55.70480005 434.16620544 55 436 C54.34 436 53.68 436 53 436 C53.33 436.99 53.66 437.98 54 439 C53.43667969 439.03738281 52.87335938 439.07476562 52.29296875 439.11328125 C48.83050101 440.45225941 47.3179902 443.21571375 45.3125 446.1875 C44.88404785 446.80665283 44.4555957 447.42580566 44.01416016 448.0637207 C42.66109482 450.03274111 41.32846094 452.01431066 40 454 C39.33701904 454.98226562 39.33701904 454.98226562 38.66064453 455.984375 C37.38749494 457.87823829 36.127929 459.78021034 34.875 461.6875 C34.48481689 462.27490967 34.09463379 462.86231934 33.69262695 463.4675293 C31.91971839 466.21926048 31 467.65677864 31 471 C30.02962104 472.02876852 29.02536513 473.02602549 28 474 C25.84287542 477.44851355 24 480.63466216 24 484.75 C24 485.4925 24 486.235 24 487 C23.09507812 487.84111328 23.09507812 487.84111328 22.171875 488.69921875 C19.43167023 491.60206157 18.53294581 494.29681647 17.25 498.0625 C16.82203125 499.29097656 16.3940625 500.51945312 15.953125 501.78515625 C14.85787651 504.9205159 14.85787651 504.9205159 15 508 C14.67 508.33 14.34 508.66 14 509 C14.33 509.66 14.66 510.32 15 511 C14.01 511 13.02 511 12 511 C11.89042969 511.62003906 11.78085938 512.24007812 11.66796875 512.87890625 C10.66080812 518.50426686 9.55715516 524.09607417 8.375 529.6875 C7.30903138 534.93699369 6.6730549 539.65989662 7 545 C6.67 545 6.34 545 6 545 C5.6844105 547.27040603 5.37271641 549.54135358 5.0625 551.8125 C4.88847656 553.07707031 4.71445313 554.34164062 4.53515625 555.64453125 C3.36326976 564.80236936 2.79832207 573.96583427 2.4375 583.1875 C2.37272461 584.75854492 2.37272461 584.75854492 2.30664062 586.36132812 C2.20200491 588.90746397 2.09982454 591.45367178 2 594 C-1.74962058 595.19910499 -5.44608036 595.13389975 -9.33886719 595.11352539 C-10.43702003 595.11374443 -10.43702003 595.11374443 -11.55735779 595.1139679 C-13.97056062 595.11327276 -16.3836857 595.10549908 -18.796875 595.09765625 C-20.47267617 595.09579065 -22.14847788 595.09436742 -23.82427979 595.09336853 C-28.23013826 595.08955452 -32.63596366 595.07973376 -37.04180908 595.06866455 C-41.53958692 595.05842643 -46.03737011 595.05386576 -50.53515625 595.04882812 C-59.35678535 595.0381105 -68.17838992 595.02104747 -77 595 C-77 595.66 -77 596.32 -77 597 C-81 596 -81 596 -82.75 595.4375 C-86.17625079 594.77128457 -89.51300798 594.94188347 -93 595 C-93.33 595.66 -93.66 596.32 -94 597 C-94 596.34 -94 595.68 -94 595 C-96.31 594.67 -98.62 594.34 -101 594 C-101.33 594.99 -101.66 595.98 -102 597 C-102 596.34 -102 595.68 -102 595 C-107.94 595 -113.88 595 -120 595 C-120.98275588 592.05173237 -121.13414725 590.07347496 -121.125 587 C-121.12757812 586.13375 -121.13015625 585.2675 -121.1328125 584.375 C-121 582 -121 582 -120 579 C-120.66 578.67 -121.32 578.34 -122 578 C-121.83766876 577.4466246 -121.67533752 576.89324921 -121.50808716 576.32310486 C-120.94685076 573.75698802 -120.87291505 571.4570636 -120.87060547 568.83032227 C-120.86745331 567.79726456 -120.86430115 566.76420685 -120.86105347 565.69984436 C-120.8630777 564.58330978 -120.86510193 563.46677521 -120.8671875 562.31640625 C-120.86623077 561.15108871 -120.86527405 559.98577118 -120.86428833 558.78514099 C-120.86360707 556.30785061 -120.86545758 553.83055845 -120.86962891 551.35327148 C-120.87489605 547.63586174 -120.86972518 543.91857743 -120.86328125 540.20117188 C-120.86394363 537.78124974 -120.86522809 535.36132768 -120.8671875 532.94140625 C-120.86516327 531.8592836 -120.86313904 530.77716095 -120.86105347 529.6622467 C-120.8778232 523.88121445 -121.03242991 518.13044563 -121.36052322 512.36004543 C-122.24495495 496.5139608 -122.14688332 480.6627509 -122.1343255 464.79789925 C-122.13175521 460.52261419 -122.13415188 456.24733106 -122.13571167 451.9720459 C-122.13751837 444.80785733 -122.13516512 437.64367917 -122.13037109 430.47949219 C-122.12491468 422.2308356 -122.12670718 413.98220369 -122.1321975 405.73354769 C-122.13675173 398.6017678 -122.1373684 391.46999528 -122.13475883 384.3382144 C-122.13321087 380.09986689 -122.13296157 375.86153094 -122.13629532 371.6231842 C-122.13920843 367.64373251 -122.13713591 363.66431237 -122.13140106 359.68486404 C-122.13009248 358.23578061 -122.13043469 356.78669446 -122.13266373 355.33761215 C-122.14367165 347.44733398 -121.90140256 339.6614952 -121.22668648 331.79958725 C-120.95609198 328.45773416 -120.87307206 325.14086537 -120.87060547 321.78857422 C-120.86745331 320.53793182 -120.86430115 319.28728943 -120.86105347 317.99874878 C-120.8630777 316.69720856 -120.86510193 315.39566833 -120.8671875 314.0546875 C-120.86651173 312.66797875 -120.86553944 311.28127012 -120.86428833 309.89456177 C-120.86282911 307.01888883 -120.86491125 304.14324735 -120.86962891 301.26757812 C-120.87537936 297.58348587 -120.8720028 293.89946564 -120.86605644 290.2153759 C-120.8624483 287.36554416 -120.86358966 284.51572962 -120.86618423 281.66589737 C-120.86685002 280.30632646 -120.86603726 278.94675398 -120.86370468 277.58718491 C-120.86116821 275.69728373 -120.86571895 273.80737703 -120.87060547 271.91748047 C-120.87140106 270.84416473 -120.87219666 269.770849 -120.87301636 268.66500854 C-120.88446686 265.89540392 -120.88446686 265.89540392 -122 263 C-121.90725724 260.48697031 -121.75498272 258.00560365 -121.5625 255.5 C-121.01242483 247.20696196 -120.88332796 238.93519061 -120.875 230.625 C-120.87056885 229.44228516 -120.8661377 228.25957031 -120.86157227 227.04101562 C-120.86342529 225.92662109 -120.86527832 224.81222656 -120.8671875 223.6640625 C-120.86831543 222.66842285 -120.86944336 221.6727832 -120.87060547 220.64697266 C-120.8901957 218.09042686 -120.8901957 218.09042686 -121.57080078 216.08349609 C-122.07853386 213.61876679 -121.67279143 211.60293283 -121.2666626 209.14468384 C-120.69356623 204.53544907 -120.8584398 199.86812189 -120.8671875 195.23046875 C-120.86623077 194.11311844 -120.86527405 192.99576813 -120.86428833 191.84455872 C-120.86361019 189.49378401 -120.86543887 187.1430074 -120.86962891 184.79223633 C-120.87500758 181.18241219 -120.86965859 177.57271105 -120.86328125 173.96289062 C-120.8639416 171.67708306 -120.86522187 169.39127557 -120.8671875 167.10546875 C-120.86415115 165.48054756 -120.86415115 165.48054756 -120.86105347 163.82279968 C-120.86420563 162.82448624 -120.86735779 161.82617279 -120.87060547 160.79760742 C-120.87140106 159.91715256 -120.87219666 159.03669769 -120.87301636 158.12956238 C-120.86317286 155.94600308 -120.86317286 155.94600308 -122 154 C-122 150.62284373 -121.74672384 147.30596575 -121.5 143.9375 C-121.12497659 138.66690068 -120.96057503 133.44701678 -121.03125 128.1640625 C-120.9861376 125.04002861 -120.53482525 122.0752452 -120 119 C-120.66 118.67 -121.32 118.34 -122 118 C-121.34 118 -120.68 118 -120 118 C-120 115.69 -120 113.38 -120 111 C-120.66 110.67 -121.32 110.34 -122 110 C-121.34 110 -120.68 110 -120 110 C-120 109.01 -120 108.02 -120 107 C-120.66 106.67 -121.32 106.34 -122 106 C-121.83701416 105.42724838 -121.67402832 104.85449677 -121.50610352 104.26438904 C-121.00161942 102.00724555 -120.88560874 100.07754948 -120.90234375 97.76977539 C-120.90564697 96.94534439 -120.9089502 96.12091339 -120.91235352 95.27149963 C-120.92065186 94.38913132 -120.9289502 93.506763 -120.9375 92.59765625 C-120.94128662 91.68294052 -120.94507324 90.76822479 -120.94897461 89.82579041 C-120.96530476 85.91774012 -120.99343838 82.00979491 -121.02050781 78.10180664 C-121.03860349 75.24626144 -121.05069121 72.39073326 -121.0625 69.53515625 C-121.07494751 68.21464012 -121.07494751 68.21464012 -121.08764648 66.8674469 C-121.10398549 62.77390217 -121.04035099 58.99296131 -120 55 C-120.66 54.67 -121.32 54.34 -122 54 C-121.814375 53.236875 -121.62875 52.47375 -121.4375 51.6875 C-120.77180827 48.91032625 -120.77180827 48.91032625 -122 46 C-121.91100338 44.25918307 -121.75535143 42.52145169 -121.5625 40.7890625 C-120.85962702 33.31202588 -120.9235396 25.87722182 -121 18.375 C-121.02660095 15.69527102 -121.04646903 13.01578141 -121.0625 10.3359375 C-121.07410156 9.16595215 -121.08570312 7.9959668 -121.09765625 6.79052734 C-121 4 -121 4 -120 2 C-80.4 2 -40.8 2 0 2 C0 1.34 0 0.68 0 0 Z M22 484 C23 486 23 486 23 486 Z " fill="#01A8FE" transform="translate(148,12)"/>
<path d="M0 0 C0.75602318 0.00037972 1.51204636 0.00075944 2.29097933 0.00115067 C3.16033587 -0.00084038 4.02969242 -0.00283143 4.9253931 -0.00488281 C5.89132639 -0.00196997 6.85725967 0.00094287 7.85246366 0.00394398 C8.87012263 0.00308955 9.88778159 0.00223513 10.9362787 0.00135481 C14.37425441 -0.00030305 17.81218221 0.00522638 21.25015348 0.01067311 C23.70347175 0.01095494 26.1567901 0.01079732 28.61010832 0.0102306 C33.90631893 0.01000228 39.20251439 0.01285368 44.49872106 0.01846844 C52.15622915 0.02658127 59.81373128 0.02919844 67.4712432 0.03045643 C79.8938065 0.03264729 92.31636326 0.03930831 104.73892301 0.04875904 C116.80923518 0.05793228 128.87954557 0.06501354 140.94986051 0.06926686 C142.06510928 0.06966094 142.06510928 0.06966094 143.20288832 0.07006299 C146.93265141 0.07136799 150.66241452 0.0726317 154.39217764 0.07387489 C185.35452526 0.08424857 216.31686475 0.10194194 247.27920622 0.1241985 C248.57000274 2.70579155 248.39527958 4.52622323 248.38331693 7.41902882 C248.38106139 8.56250468 248.37880584 9.70598053 248.37648195 10.88410717 C248.36879258 12.1629711 248.36110321 13.44183502 248.35318083 14.7594524 C248.34848202 16.13795861 248.34423146 17.5164664 248.34038538 18.89497524 C248.33083244 21.9622494 248.31798428 25.02948842 248.3028993 28.09674031 C248.27729707 33.34389391 248.26008666 38.59106057 248.24334806 43.83824879 C248.20241251 56.21224729 248.14984743 68.58618957 248.09561247 80.960136 C248.09075039 82.07075162 248.08588832 83.18136724 248.08087891 84.32563788 C248.03481977 94.81859689 247.98807702 105.31155271 247.93986696 115.80450207 C247.87863709 129.14349629 247.82077525 142.48249633 247.7672143 155.82152361 C247.72903596 165.26074401 247.6870962 174.69994316 247.64232767 184.13913459 C247.61577492 189.75969207 247.59091561 195.38024534 247.5701322 201.00082737 C247.55062746 206.25587467 247.52650322 211.51087987 247.49871534 216.7658897 C247.48932615 218.69733189 247.48165765 220.62878328 247.4757871 222.56023937 C247.46756132 225.18352415 247.45329689 227.80670616 247.4374246 230.42995411 C247.43644649 231.20353996 247.43546839 231.97712581 247.43446064 232.77415365 C247.3933344 238.01007031 247.3933344 238.01007031 246.27920622 239.1241985 C244.66037067 239.22681666 243.03705523 239.25940138 241.41497892 239.26464039 C240.35981077 239.27035053 239.30464262 239.27606068 238.21749967 239.28194386 C237.04821928 239.28306172 235.87893888 239.28417958 234.67422575 239.28533131 C233.4490222 239.29029621 232.22381864 239.29526112 230.96148771 239.30037647 C227.57391712 239.31254091 224.18640891 239.31996663 220.79882377 239.32438713 C218.65848145 239.32732836 216.51814437 239.33143672 214.3778047 239.33589131 C207.61647185 239.34962863 200.85515121 239.35924531 194.09380537 239.3630932 C187.1700286 239.36705798 180.2463925 239.37895698 173.32266325 239.4054485 C63.17731506 239.81761698 63.17731506 239.81761698 30.27920622 231.9991985 C29.38620817 231.79037037 28.49321012 231.58154225 27.57315153 231.366386 C20.89587219 229.71408208 14.44718169 227.59381496 8.02920622 225.1241985 C7.1771359 224.80434986 6.32506559 224.48450123 5.44717497 224.15496022 C4.27348356 223.67567066 4.27348356 223.67567066 3.07608122 223.1866985 C2.38868864 222.90955006 1.70129606 222.63240162 0.9930734 222.34685475 C-1.4890733 220.57611533 -1.82645116 219.04931398 -2.72079378 216.1241985 C-2.90582946 213.17258094 -2.986508 210.31762076 -2.96803194 207.36742359 C-2.97165357 206.04512812 -2.97165357 206.04512812 -2.97534835 204.69611961 C-2.98098353 201.74270853 -2.97232364 198.78951391 -2.96371371 195.83611256 C-2.9647866 193.71879731 -2.9667254 191.60148234 -2.96946627 189.48416859 C-2.97431535 183.73455192 -2.96665896 177.9850128 -2.95651323 172.2354055 C-2.94773768 166.22606769 -2.94949005 160.21673233 -2.94987398 154.20738941 C-2.94893737 144.11958728 -2.94025224 134.03181523 -2.92660433 123.94402272 C-2.91086183 112.26451707 -2.90560681 100.58504433 -2.90633988 88.90552884 C-2.90694915 77.68485276 -2.90185411 66.46418745 -2.89354807 55.2435146 C-2.89000859 50.46041743 -2.88818388 45.67732407 -2.88765436 40.89422566 C-2.8866535 35.27018796 -2.88057807 29.64617814 -2.87048823 24.02214962 C-2.86755543 21.95204358 -2.86633942 19.88193433 -2.86691576 17.81182629 C-2.86740277 14.99886702 -2.86178744 12.1859871 -2.85450655 9.37303883 C-2.85605515 8.54280838 -2.85760376 7.71257794 -2.85919929 6.857189 C-2.83051404 0.20429269 -2.83051404 0.20429269 0 0 Z " fill="#0EF72E" transform="translate(278.7207937836647,13.875801503658295)"/>
<path d="M0 0 C0 77.88 0 155.76 0 236 C-12.37454156 237.12495832 -12.37454156 237.12495832 -16.63722229 237.11352539 C-17.60866684 237.1134549 -18.58011139 237.1133844 -19.58099365 237.11331177 C-20.60428772 237.10814545 -21.62758179 237.10297913 -22.68188477 237.09765625 C-23.79218552 237.09619598 -24.90248627 237.09473572 -26.0464325 237.0932312 C-28.4357047 237.08945081 -30.82497417 237.08336178 -33.21423531 237.07516479 C-36.99202665 237.06232799 -40.76978263 237.05586789 -44.54759216 237.05102539 C-52.5525776 237.03964409 -60.55753406 237.02040625 -68.5625 237 C-77.87160477 236.97633611 -87.18069119 236.95604732 -96.48982048 236.94406128 C-100.21805389 236.9375625 -103.94623705 236.92506079 -107.67445374 236.91235352 C-109.94385738 236.90872352 -112.21326149 236.90537147 -114.48266602 236.90234375 C-115.52417816 236.89717743 -116.56569031 236.89201111 -117.63876343 236.88668823 C-118.58482956 236.88661774 -119.53089569 236.88654724 -120.50563049 236.88647461 C-121.3301751 236.884254 -122.15471972 236.88203339 -123.00425053 236.87974548 C-125.07395493 236.873391 -125.07395493 236.873391 -127 238 C-127.9162953 213.16057967 -128.15106715 188.35100828 -128.1343255 163.4964478 C-128.13174193 158.43980566 -128.13415462 153.38316507 -128.13571167 148.32652283 C-128.13751109 139.87986923 -128.13518103 131.4332245 -128.13037109 122.98657227 C-128.12487772 113.22703579 -128.12673635 103.46752005 -128.1321975 93.70798403 C-128.13672758 85.27250016 -128.13738134 76.83702253 -128.13475883 68.40153784 C-128.13320248 63.38569544 -128.13298583 58.36986284 -128.13629532 53.35402107 C-128.13917431 48.66774192 -128.13719793 43.9814899 -128.13140106 39.2952137 C-128.13007597 37.57584681 -128.13046335 35.85647765 -128.13266373 34.13711166 C-128.13538362 31.79715155 -128.13198442 29.45727929 -128.12698364 27.11732483 C-128.12660662 25.80737077 -128.12622959 24.49741671 -128.12584114 23.14776707 C-128 20 -128 20 -127 17 C-114.38526518 8.87050423 -98.97019621 5.28503901 -84.375 2.875 C-82.94607422 2.62169922 -82.94607422 2.62169922 -81.48828125 2.36328125 C-54.92947361 -2.08068261 -26.27473401 0 0 0 Z " fill="#0EF72D" transform="translate(404,370)"/>
<path d="M0 0 C0.33 0 0.66 0 1 0 C2.12954088 8.11966807 2.13732612 16.17715191 2.12025452 24.35670471 C2.12069104 25.91539733 2.12156744 27.47408987 2.12284368 29.03278202 C2.12507269 33.29944908 2.12108923 37.56609089 2.11606562 41.83275473 C2.11173837 46.44000154 2.11320916 51.04724697 2.1139679 55.65449524 C2.11449169 63.63141275 2.11135998 71.60832206 2.10573006 79.5852375 C2.09759548 91.11845178 2.09499783 102.6516621 2.09374207 114.18487894 C2.09155463 132.89775031 2.08490288 151.61061732 2.07543945 170.32348633 C2.06625738 188.49894184 2.05918043 206.67439616 2.05493164 224.84985352 C2.05466892 225.97059934 2.05440619 227.09134517 2.05413551 228.24605299 C2.05283045 233.86862806 2.05156675 239.49120315 2.05032361 245.11377823 C2.03996058 291.7425227 2.02152743 338.37125909 2 385 C26.42 385 50.84 385 76 385 C76.33 385.66 76.66 386.32 77 387 C66.11 387 55.22 387 44 387 C44 387.66 44 388.32 44 389 C40 388 40 388 38.25 387.4375 C34.82374921 386.77128457 31.48699202 386.94188347 28 387 C27.67 387.66 27.34 388.32 27 389 C27 388.34 27 387.68 27 387 C24.69 386.67 22.38 386.34 20 386 C19.67 386.99 19.34 387.98 19 389 C19 388.34 19 387.68 19 387 C13.06 387 7.12 387 1 387 C0.01724412 384.05173237 -0.13414725 382.07347496 -0.125 379 C-0.12757812 378.13375 -0.13015625 377.2675 -0.1328125 376.375 C0 374 0 374 1 371 C0.34 370.67 -0.32 370.34 -1 370 C-0.83766876 369.4466246 -0.67533752 368.89324921 -0.50808716 368.32310486 C0.05314924 365.75698802 0.12708495 363.4570636 0.12939453 360.83032227 C0.13254669 359.79726456 0.13569885 358.76420685 0.13894653 357.69984436 C0.1369223 356.58330978 0.13489807 355.46677521 0.1328125 354.31640625 C0.13376923 353.15108871 0.13472595 351.98577118 0.13571167 350.78514099 C0.13639293 348.30785061 0.13454242 345.83055845 0.13037109 343.35327148 C0.12510395 339.63586174 0.13027482 335.91857743 0.13671875 332.20117188 C0.13605637 329.78124974 0.13477191 327.36132768 0.1328125 324.94140625 C0.13483673 323.8592836 0.13686096 322.77716095 0.13894653 321.6622467 C0.1221768 315.88121445 -0.03242991 310.13044563 -0.36052322 304.36004543 C-1.24495495 288.5139608 -1.14688332 272.6627509 -1.1343255 256.79789925 C-1.13175521 252.52261419 -1.13415188 248.24733106 -1.13571167 243.9720459 C-1.13751837 236.80785733 -1.13516512 229.64367917 -1.13037109 222.47949219 C-1.12491468 214.2308356 -1.12670718 205.98220369 -1.1321975 197.73354769 C-1.13675173 190.6017678 -1.1373684 183.46999528 -1.13475883 176.3382144 C-1.13321087 172.09986689 -1.13296157 167.86153094 -1.13629532 163.6231842 C-1.13920843 159.64373251 -1.13713591 155.66431237 -1.13140106 151.68486404 C-1.13009248 150.23578061 -1.13043469 148.78669446 -1.13266373 147.33761215 C-1.14367165 139.44733398 -0.90140256 131.6614952 -0.22668648 123.79958725 C0.04390802 120.45773416 0.12692794 117.14086537 0.12939453 113.78857422 C0.13254669 112.53793182 0.13569885 111.28728943 0.13894653 109.99874878 C0.1369223 108.69720856 0.13489807 107.39566833 0.1328125 106.0546875 C0.13348827 104.66797875 0.13446056 103.28127012 0.13571167 101.89456177 C0.13717089 99.01888883 0.13508875 96.14324735 0.13037109 93.26757812 C0.12462064 89.58348587 0.1279972 85.89946564 0.13394356 82.2153759 C0.1375517 79.36554416 0.13641034 76.51572962 0.13381577 73.66589737 C0.13314998 72.30632646 0.13396274 70.94675398 0.13629532 69.58718491 C0.13883179 67.69728373 0.13428105 65.80737703 0.12939453 63.91748047 C0.12859894 62.84416473 0.12780334 61.770849 0.12698364 60.66500854 C0.11553314 57.89540392 0.11553314 57.89540392 -1 55 C-0.90725724 52.48697031 -0.75498272 50.00560365 -0.5625 47.5 C-0.01242483 39.20696196 0.11667204 30.93519061 0.125 22.625 C0.12943115 21.44228516 0.1338623 20.25957031 0.13842773 19.04101562 C0.13657471 17.92662109 0.13472168 16.81222656 0.1328125 15.6640625 C0.13168457 14.66842285 0.13055664 13.6727832 0.12939453 12.64697266 C0.01276616 10.26115228 -0.42249851 8.29968259 -1 6 C-0.72949547 3.99053778 -0.40632091 1.98645776 0 0 Z " fill="#089AED" transform="translate(27,220)"/>
<path d="M0 0 C0.75602318 0.00037972 1.51204636 0.00075944 2.29097933 0.00115067 C3.16033587 -0.00084038 4.02969242 -0.00283143 4.9253931 -0.00488281 C5.89132639 -0.00196997 6.85725967 0.00094287 7.85246366 0.00394398 C8.87012263 0.00308955 9.88778159 0.00223513 10.9362787 0.00135481 C14.37425441 -0.00030305 17.81218221 0.00522638 21.25015348 0.01067311 C23.70347175 0.01095494 26.1567901 0.01079732 28.61010832 0.0102306 C33.90631893 0.01000228 39.20251439 0.01285368 44.49872106 0.01846844 C52.15622915 0.02658127 59.81373128 0.02919844 67.4712432 0.03045643 C79.8938065 0.03264729 92.31636326 0.03930831 104.73892301 0.04875904 C116.80923518 0.05793228 128.87954557 0.06501354 140.94986051 0.06926686 C142.06510928 0.06966094 142.06510928 0.06966094 143.20288832 0.07006299 C146.93265141 0.07136799 150.66241452 0.0726317 154.39217764 0.07387489 C185.35452526 0.08424857 216.31686475 0.10194194 247.27920622 0.1241985 C248.56975626 2.70529858 248.39585804 4.52552759 248.3845529 7.41779286 C248.38248083 8.56108524 248.38040876 9.70437762 248.3782739 10.88231522 C248.37071829 12.16104539 248.36316267 13.43977556 248.35537809 14.75725514 C248.35077696 16.13568993 248.34659706 17.51412617 248.34279722 18.8925634 C248.33060042 22.788194 248.3116855 26.68376931 248.29169935 30.57936674 C248.27451716 34.07935159 248.26096036 37.57934737 248.24730819 41.07934749 C248.19957266 53.27390221 248.1391885 65.4683849 248.07727712 77.66287452 C248.04869401 83.32552197 248.02099644 88.98817375 247.99319547 94.65082508 C247.94068202 105.32062673 247.88739933 115.99042438 247.83382362 126.66022074 C247.77275487 138.82999173 247.71256901 150.99976703 247.65244859 163.16954273 C247.52900037 188.15443283 247.40447174 213.13931745 247.27920622 238.1241985 C246.94920622 238.1241985 246.61920622 238.1241985 246.27920622 238.1241985 C246.27920622 159.9141985 246.27920622 81.7041985 246.27920622 1.1241985 C164.76920622 1.1241985 83.25920622 1.1241985 -0.72079378 1.1241985 C-0.39079378 35.7741985 -0.06079378 70.4241985 0.27920622 106.1241985 C-0.21579378 106.6191985 -0.21579378 106.6191985 -0.72079378 107.1241985 C-0.84448703 109.1177128 -0.89875768 111.1155632 -0.92611605 113.11272389 C-0.94606127 114.39397648 -0.96600649 115.67522907 -0.98655611 116.99530751 C-1.00354175 118.40415533 -1.02042051 119.81300445 -1.03720003 121.22185475 C-1.05776294 122.65532754 -1.07875923 124.08879419 -1.10017306 125.52225453 C-1.15546238 129.30172969 -1.20484124 133.0812602 -1.25302035 136.8608318 C-1.30318544 140.71494705 -1.3588975 144.56898159 -1.41415316 148.42302662 C-1.52181857 155.99001563 -1.62324475 163.5570716 -1.72079378 171.1241985 C-2.05079378 171.1241985 -2.38079378 171.1241985 -2.72079378 171.1241985 C-2.74412051 148.97622421 -2.76177184 126.82825194 -2.77260596 104.68026787 C-2.7777694 94.39733237 -2.784813 84.1144045 -2.79623324 73.83147389 C-2.80617861 64.872279 -2.81264686 55.91308962 -2.81488228 46.95388937 C-2.81618964 42.20699778 -2.81927706 37.46012198 -2.82652384 32.71323544 C-2.83328175 28.25066823 -2.83541122 23.7881234 -2.83390146 19.32555157 C-2.8341779 17.68277448 -2.83618437 16.03999669 -2.83999926 14.39722401 C-2.84493294 12.16422479 -2.8437933 9.93131141 -2.8410483 7.69831043 C-2.84197009 6.44559377 -2.84289189 5.1928771 -2.84384161 3.90219933 C-2.67956522 0.19339794 -2.67956522 0.19339794 0 0 Z " fill="#1BE836" transform="translate(278.7207937836647,13.875801503658295)"/>
<path d="M0 0 C2 2 2 2 2.1953125 5.0390625 C2.17210937 6.22242188 2.14890625 7.40578125 2.125 8.625 C2.10695313 9.81351563 2.08890625 11.00203125 2.0703125 12.2265625 C2.04710937 13.14179688 2.02390625 14.05703125 2 15 C1.67 15 1.34 15 1 15 C1 11.04 1 7.08 1 3 C-0.25376938 3.16265854 -1.50753876 3.32531708 -2.79930115 3.49290466 C-8.27902448 4.0980604 -13.70311854 4.13321862 -19.21118164 4.11352539 C-20.29514221 4.11367142 -21.37910278 4.11381744 -22.49591064 4.1139679 C-26.0506801 4.11327561 -29.60539604 4.10551543 -33.16015625 4.09765625 C-35.63594026 4.09578964 -38.11172464 4.09436688 -40.58750916 4.09336853 C-47.08280468 4.08956251 -53.57807762 4.07974866 -60.07336426 4.06866455 C-66.70971411 4.05840917 -73.34606619 4.05386208 -79.98242188 4.04882812 C-92.98829085 4.0381246 -105.99414422 4.02126531 -119 4 C-118.83577545 5.27894135 -118.6715509 6.55788269 -118.50234985 7.87557983 C-117.70794402 15.89582724 -117.90746553 23.94185448 -117.96240234 31.99072266 C-117.97092152 33.80185245 -117.9789914 35.6129844 -117.98664856 37.42411804 C-118.00873396 42.31856956 -118.03742567 47.21296144 -118.06760359 52.10736895 C-118.09839211 57.24053816 -118.12393657 62.373734 -118.15029907 67.50692749 C-118.19540304 76.123132 -118.24487142 84.73930331 -118.296875 93.35546875 C-118.35687426 103.30636824 -118.40965483 113.25728654 -118.45864332 123.20824587 C-118.50604474 132.79775541 -118.55884829 142.38722818 -118.61400223 151.97669601 C-118.63732204 156.05064553 -118.65870639 160.12459835 -118.67850876 164.19856644 C-118.70205615 168.99701222 -118.73032723 173.79540782 -118.76219749 178.59380531 C-118.77311448 180.3513565 -118.78241748 182.1089186 -118.78996086 183.8664875 C-118.80055347 186.27168974 -118.81707984 188.67678285 -118.83505249 191.0819397 C-118.83671272 191.7716412 -118.83837294 192.46134271 -118.84008348 193.17194426 C-118.88374599 197.86130399 -119.3523793 202.36444394 -120 207 C-120.33 207 -120.66 207 -121 207 C-120.99777939 206.36550934 -120.99555878 205.73101868 -120.99327087 205.07730103 C-120.97119955 198.49164389 -120.95608563 191.90599722 -120.94506836 185.3203125 C-120.94003011 182.86034722 -120.9331994 180.40038495 -120.92456055 177.94042969 C-120.91247277 174.41079975 -120.90676671 170.88120931 -120.90234375 167.3515625 C-120.89718246 166.24632233 -120.89202118 165.14108215 -120.88670349 164.00234985 C-120.88662796 162.98144257 -120.88655243 161.96053528 -120.88647461 160.90869141 C-120.884254 160.00712311 -120.88203339 159.10555481 -120.87974548 158.17666626 C-120.8580715 155.95286252 -120.8580715 155.95286252 -122 154 C-122 150.62284373 -121.74672384 147.30596575 -121.5 143.9375 C-121.12497659 138.66690068 -120.96057503 133.44701678 -121.03125 128.1640625 C-120.9861376 125.04002861 -120.53482525 122.0752452 -120 119 C-120.66 118.67 -121.32 118.34 -122 118 C-121.34 118 -120.68 118 -120 118 C-120 115.69 -120 113.38 -120 111 C-120.66 110.67 -121.32 110.34 -122 110 C-121.34 110 -120.68 110 -120 110 C-120 109.01 -120 108.02 -120 107 C-120.66 106.67 -121.32 106.34 -122 106 C-121.83701416 105.42724838 -121.67402832 104.85449677 -121.50610352 104.26438904 C-121.00161942 102.00724555 -120.88560874 100.07754948 -120.90234375 97.76977539 C-120.90564697 96.94534439 -120.9089502 96.12091339 -120.91235352 95.27149963 C-120.92065186 94.38913132 -120.9289502 93.506763 -120.9375 92.59765625 C-120.94128662 91.68294052 -120.94507324 90.76822479 -120.94897461 89.82579041 C-120.96530476 85.91774012 -120.99343838 82.00979491 -121.02050781 78.10180664 C-121.03860349 75.24626144 -121.05069121 72.39073326 -121.0625 69.53515625 C-121.07494751 68.21464012 -121.07494751 68.21464012 -121.08764648 66.8674469 C-121.10398549 62.77390217 -121.04035099 58.99296131 -120 55 C-120.66 54.67 -121.32 54.34 -122 54 C-121.814375 53.236875 -121.62875 52.47375 -121.4375 51.6875 C-120.77180827 48.91032625 -120.77180827 48.91032625 -122 46 C-121.91100338 44.25918307 -121.75535143 42.52145169 -121.5625 40.7890625 C-120.85962702 33.31202588 -120.9235396 25.87722182 -121 18.375 C-121.02660095 15.69527102 -121.04646903 13.01578141 -121.0625 10.3359375 C-121.07410156 9.16595215 -121.08570312 7.9959668 -121.09765625 6.79052734 C-121 4 -121 4 -120 2 C-80.4 2 -40.8 2 0 2 C0 1.34 0 0.68 0 0 Z " fill="#079BE8" transform="translate(148,12)"/>
<path d="M0 0 C0.33 0 0.66 0 1 0 C1.75669844 6.04833436 2.14279964 11.92548938 2.12025452 18.01673889 C2.12110894 18.87789116 2.12196337 19.73904343 2.12284368 20.62629122 C2.12447932 23.48664103 2.11900875 26.34693106 2.11352539 29.20727539 C2.11324308 31.26769001 2.11340211 33.32810473 2.1139679 35.38851929 C2.11425415 40.96426366 2.10838515 46.5399864 2.10139394 52.11572576 C2.09513183 57.94933668 2.09455434 63.78294813 2.09336853 69.61656189 C2.09026364 80.65542394 2.0820616 91.69427605 2.07201904 102.73313373 C2.06083176 115.30383955 2.05534086 127.87454584 2.05032361 140.4452554 C2.03987828 166.29684243 2.02229514 192.14842066 2 218 C0.97519531 217.98839844 -0.04960938 217.97679687 -1.10546875 217.96484375 C-2.466144 217.95545978 -3.82682124 217.94636023 -5.1875 217.9375 C-5.86103516 217.92912109 -6.53457031 217.92074219 -7.22851562 217.91210938 C-10.97380993 217.89383965 -14.34357682 218.25811704 -18 219 C-20.3125 218.0625 -20.3125 218.0625 -22 217 C-22.495 217.99 -22.495 217.99 -23 219 C-23.99 218.34 -24.98 217.68 -26 217 C-25 216 -25 216 -22.49975586 215.88647461 C-21.41573486 215.89171143 -20.33171387 215.89694824 -19.21484375 215.90234375 C-17.46010742 215.90717773 -17.46010742 215.90717773 -15.66992188 215.91210938 C-14.43822266 215.92048828 -13.20652344 215.92886719 -11.9375 215.9375 C-10.08415039 215.94426758 -10.08415039 215.94426758 -8.19335938 215.95117188 C-5.12885883 215.96300392 -2.06445279 215.97948827 1 216 C0.97003433 214.83862015 0.94006866 213.6772403 0.90919495 212.48066711 C-0.14225709 170.51559753 -0.1236445 128.56048185 -0.07202661 86.58530438 C-0.06059336 77.11399051 -0.05528744 67.64267567 -0.05032361 58.17135656 C-0.04003273 38.78089653 -0.02259088 19.39044942 0 0 Z " fill="#0BA2EE" transform="translate(525,389)"/>
<path d="M0 0 C0.33 0 0.66 0 1 0 C1.81339264 6.39973331 2.1440554 12.6274021 2.12939453 19.07446289 C2.13114685 20.03828384 2.13289917 21.0021048 2.13470459 21.99513245 C2.13907559 25.15432582 2.13620216 28.31346239 2.1328125 31.47265625 C2.13348685 33.6826529 2.13445797 35.89264948 2.13571167 38.10264587 C2.13718216 42.72314158 2.13505475 47.34361789 2.13037109 51.96411133 C2.12467087 57.87412845 2.12795881 63.78410018 2.13394356 69.69411564 C2.13756383 74.25382324 2.13640389 78.81352015 2.13381577 83.37322807 C2.13315073 85.55203698 2.13396007 87.73084686 2.13629532 89.90965462 C2.13884629 92.95810632 2.134947 96.00648533 2.12939453 99.05493164 C2.13141876 99.94710388 2.13344299 100.83927612 2.13552856 101.75848389 C2.11816365 106.92767855 1.74500549 111.88333893 1 117 C0.67 117 0.34 117 0 117 C0.00222061 116.26750534 0.00444122 115.53501068 0.00672913 114.78031921 C0.02676091 107.87938598 0.0419889 100.97845708 0.05181217 94.07750225 C0.05703216 90.52960152 0.0641138 86.9817248 0.07543945 83.43383789 C0.08837663 79.35562916 0.09323552 75.27744567 0.09765625 71.19921875 C0.10281754 69.92414963 0.10797882 68.64908051 0.11329651 67.33537292 C0.11337204 66.15437515 0.11344757 64.97337738 0.11352539 63.7565918 C0.115746 62.71512497 0.11796661 61.67365814 0.12025452 60.60063171 C0.11286691 57.88515163 0.11286691 57.88515163 -1 55 C-0.90725724 52.48697031 -0.75498272 50.00560365 -0.5625 47.5 C-0.01242483 39.20696196 0.11667204 30.93519061 0.125 22.625 C0.12943115 21.44228516 0.1338623 20.25957031 0.13842773 19.04101562 C0.13657471 17.92662109 0.13472168 16.81222656 0.1328125 15.6640625 C0.13168457 14.66842285 0.13055664 13.6727832 0.12939453 12.64697266 C0.01276616 10.26115228 -0.42249851 8.29968259 -1 6 C-0.72949547 3.99053778 -0.40632091 1.98645776 0 0 Z " fill="#0796EA" transform="translate(27,220)"/>
<path d="M0 0 C1.13641704 3.40925112 0.82488631 4.61333609 0.00390625 8.04296875 C-0.22490234 9.03490234 -0.45371094 10.02683594 -0.68945312 11.04882812 C-1.18353638 13.12191376 -1.67831475 15.19483386 -2.17382812 17.26757812 C-3.49565886 23.00291652 -4.28904382 28.1133759 -4 34 C-4.33 34 -4.66 34 -5 34 C-5.3155895 36.27040603 -5.62728359 38.54135358 -5.9375 40.8125 C-6.19853516 42.70935547 -6.19853516 42.70935547 -6.46484375 44.64453125 C-7.63673024 53.80236936 -8.20167793 62.96583427 -8.5625 72.1875 C-8.60568359 73.23486328 -8.64886719 74.28222656 -8.69335938 75.36132812 C-8.79799509 77.90746397 -8.90017546 80.45367178 -9 83 C-13.09003859 84.14982602 -17.03177051 84.11094256 -21.25 84.0625 C-21.99507812 84.05798828 -22.74015625 84.05347656 -23.5078125 84.04882812 C-25.3385764 84.03709246 -27.16929873 84.0191585 -29 84 C-28.505 83.01 -28.505 83.01 -28 82 C-22.39 82 -16.78 82 -11 82 C-10.96261719 80.10121094 -10.92523438 78.20242188 -10.88671875 76.24609375 C-9.61714872 22.76371243 -9.61714872 22.76371243 0 0 Z " fill="#149DE7" transform="translate(159,523)"/>
<path d="M0 0 C24.09 0 48.18 0 73 0 C73.495 0.99 73.495 0.99 74 2 C63.11 2 52.22 2 41 2 C41 2.66 41 3.32 41 4 C37 3 37 3 35.25 2.4375 C31.82374921 1.77128457 28.48699202 1.94188347 25 2 C24.67 2.66 24.34 3.32 24 4 C24 3.34 24 2.68 24 2 C21.69 1.67 19.38 1.34 17 1 C16.67 1.99 16.34 2.98 16 4 C16 3.34 16 2.68 16 2 C14.77023438 2.03480469 14.77023438 2.03480469 13.515625 2.0703125 C11.89914063 2.09738281 11.89914063 2.09738281 10.25 2.125 C8.64898437 2.15980469 8.64898437 2.15980469 7.015625 2.1953125 C4 2 4 2 0 0 Z " fill="#28ACF1" transform="translate(30,605)"/>
<path d="M0 0 C0.33 0 0.66 0 1 0 C1 25.08 1 50.16 1 76 C-3.95 76 -8.9 76 -14 76 C-16.475 76.495 -16.475 76.495 -19 77 C-21.3125 76.0625 -21.3125 76.0625 -23 75 C-23.495 75.99 -23.495 75.99 -24 77 C-24.99 76.34 -25.98 75.68 -27 75 C-26 74 -26 74 -23.49975586 73.88647461 C-22.41573486 73.89171143 -21.33171387 73.89694824 -20.21484375 73.90234375 C-18.46010742 73.90717773 -18.46010742 73.90717773 -16.66992188 73.91210938 C-14.82237305 73.92467773 -14.82237305 73.92467773 -12.9375 73.9375 C-11.08415039 73.94426758 -11.08415039 73.94426758 -9.19335938 73.95117188 C-6.12885883 73.96300392 -3.06445279 73.97948827 0 74 C-0.01474869 73.36789612 -0.02949738 72.73579224 -0.04469299 72.08453369 C-0.19923837 65.39897613 -0.34346783 58.71324816 -0.48217773 52.02734375 C-0.53496568 49.54486633 -0.59022975 47.06244009 -0.64819336 44.58007812 C-0.99458173 29.6642935 -1.03078647 14.88889904 0 0 Z " fill="#129DE6" transform="translate(526,531)"/>
<path d="M0 0 C0.33 0 0.66 0 1 0 C1.01030746 0.92263641 1.02061493 1.84527283 1.03123474 2.79586792 C1.12908786 11.47783475 1.23158476 20.15973153 1.33933926 28.84158134 C1.39457602 33.30533222 1.44799723 37.76908964 1.49731445 42.23291016 C1.5449469 46.53825825 1.5972893 50.84352536 1.65294075 55.14877701 C1.67336939 56.79384477 1.69208162 58.43893475 1.70907402 60.0840416 C1.73310681 62.38276982 1.76316278 64.68134439 1.79467773 66.97998047 C1.81022202 68.2901413 1.8257663 69.60030212 1.84178162 70.95016479 C1.79168072 73.91692355 1.79168072 73.91692355 3 76 C1.68 75.67 0.36 75.34 -1 75 C-1.02703381 73.06257659 -1.04641125 71.12504521 -1.0625 69.1875 C-1.07410156 68.10855469 -1.08570312 67.02960938 -1.09765625 65.91796875 C-1 63 -1 63 0 60 C-0.66 59.67 -1.32 59.34 -2 59 C-1.83701416 58.45127731 -1.67402832 57.90255463 -1.50610352 57.33720398 C-0.93293886 54.69030926 -0.88737148 52.31340781 -0.90234375 49.60473633 C-0.90564697 48.52714554 -0.9089502 47.44955475 -0.91235352 46.33930969 C-0.92480103 44.60320686 -0.92480103 44.60320686 -0.9375 42.83203125 C-0.94128662 41.64147629 -0.94507324 40.45092133 -0.94897461 39.22428894 C-0.96119984 35.42032273 -0.97983909 31.61643194 -1 27.8125 C-1.02646578 22.79817928 -1.04651302 17.78389506 -1.0625 12.76953125 C-1.07079834 11.60605667 -1.07909668 10.44258209 -1.08764648 9.24385071 C-1.09094971 8.1757164 -1.09425293 7.10758209 -1.09765625 6.00708008 C-1.10289307 5.06206131 -1.10812988 4.11704254 -1.11352539 3.14338684 C-1 1 -1 1 0 0 Z " fill="#0C9EEE" transform="translate(28,531)"/>
<path d="M0 0 C1.31328781 -0.0049926 1.31328781 -0.0049926 2.65310669 -0.01008606 C4.50750197 -0.01515395 6.36190639 -0.01749443 8.21630859 -0.01733398 C11.0519112 -0.01951708 13.8871227 -0.03766478 16.72265625 -0.05664062 C18.52343617 -0.05957525 20.32421794 -0.06155958 22.125 -0.0625 C22.97303192 -0.06968552 23.82106384 -0.07687103 24.6947937 -0.08427429 C25.88590256 -0.07965935 25.88590256 -0.07965935 27.10107422 -0.07495117 C27.79675507 -0.07637619 28.49243591 -0.07780121 29.209198 -0.07926941 C31.53642076 0.21043104 33.16532811 1.02173139 35.1953125 2.16796875 C32.29583112 3.61770944 30.38021095 2.7470412 27.1953125 2.16796875 C24.19878686 1.80134653 21.19781241 1.48156319 18.1953125 1.16796875 C17.8653125 2.15796875 17.5353125 3.14796875 17.1953125 4.16796875 C17.1953125 3.50796875 17.1953125 2.84796875 17.1953125 2.16796875 C14.8853125 1.83796875 12.5753125 1.50796875 10.1953125 1.16796875 C9.8653125 2.15796875 9.5353125 3.14796875 9.1953125 4.16796875 C9.1953125 3.50796875 9.1953125 2.84796875 9.1953125 2.16796875 C7.0491099 2.30826294 4.90335032 2.45535039 2.7578125 2.60546875 C1.56285156 2.68667969 0.36789062 2.76789062 -0.86328125 2.8515625 C-3.69038994 2.84452989 -3.69038994 2.84452989 -4.8046875 4.16796875 C-7.7039101 3.7003522 -8.67143932 3.30121693 -10.8046875 1.16796875 C-7.45528784 -0.50673108 -3.68339603 0.00481054 0 0 Z " fill="#30B8E3" transform="translate(412.8046875,604.83203125)"/>
<path d="M0 0 C0.33 0 0.66 0 1 0 C1.04898438 0.69867188 1.09796875 1.39734375 1.1484375 2.1171875 C1.22320312 3.02726562 1.29796875 3.93734375 1.375 4.875 C1.44460937 5.77992187 1.51421875 6.68484375 1.5859375 7.6171875 C1.79568132 10.17941903 1.79568132 10.17941903 4 12 C3.34 12 2.68 12 2 12 C2.11339204 14.64680904 2.24012873 17.29177518 2.375 19.9375 C2.42140625 21.06961914 2.42140625 21.06961914 2.46875 22.22460938 C2.5726315 24.15507395 2.77895614 26.07942081 3 28 C3.66 28.33 4.32 28.66 5 29 C5.30859375 30.72265625 5.30859375 30.72265625 5.4375 33.0625 C5.86503251 38.63655598 6.90463422 44.00686704 8.07202148 49.46508789 C8.77299666 52.92342949 9.28967585 55.64684279 8 59 C4.85584744 47.42888016 2.6315736 35.87774092 1 24 C0.79890625 22.54787109 0.79890625 22.54787109 0.59375 21.06640625 C-0.23402091 14.06484393 -0.09129764 7.0400628 0 0 Z " fill="#0D97E1" transform="translate(150,33)"/>
<path d="M0 0 C0.495 0.99 0.495 0.99 1 2 C-14.51 2 -30.02 2 -46 2 C-46 1.67 -46 1.34 -46 1 C-40.73519559 0.68758388 -35.46995534 0.38477672 -30.20410156 0.09057617 C-28.41554145 -0.01067222 -26.62712376 -0.11447217 -24.83886719 -0.22094727 C-22.25750085 -0.37418891 -19.67574899 -0.51802256 -17.09375 -0.66015625 C-16.30383667 -0.70906509 -15.51392334 -0.75797394 -14.70007324 -0.80836487 C-9.65884419 -1.0744045 -4.9756564 -0.92024612 0 0 Z " fill="#30F64B" transform="translate(396,605)"/>
<path d="M0 0 C0.33 0 0.66 0 1 0 C1 5.94 1 11.88 1 18 C-3.18730624 19.04682656 -6.97856931 19.11155353 -11.25 19.0625 C-11.99507812 19.05798828 -12.74015625 19.05347656 -13.5078125 19.04882812 C-15.3385764 19.03709246 -17.16929873 19.0191585 -19 19 C-18.67 18.34 -18.34 17.68 -18 17 C-12.39 17 -6.78 17 -1 17 C-1.020625 15.494375 -1.04125 13.98875 -1.0625 12.4375 C-1.06856359 8.17479779 -0.72951444 4.19470805 0 0 Z " fill="#27ABED" transform="translate(149,588)"/>
<path d="M0 0 C0.66 0 1.32 0 2 0 C3.50296 10.01973334 2.64602167 19.93612504 2 30 C1.34 30 0.68 30 0 30 C0 20.1 0 10.2 0 0 Z " fill="#079FEA" transform="translate(27,16)"/>
<path d="M0 0 C6.27 0.33 12.54 0.66 19 1 C19.33 1.99 19.66 2.98 20 4 C11.42 4 2.84 4 -6 4 C-6 3.67 -6 3.34 -6 3 C-4.02 2.67 -2.04 2.34 0 2 C0 1.34 0 0.68 0 0 Z " fill="#2CFB43" transform="translate(329,603)"/>
<path d="M0 0 C1.12591553 0.00523682 2.25183105 0.01047363 3.41186523 0.01586914 C4.62680664 0.0190918 5.84174805 0.02231445 7.09350586 0.02563477 C8.37290039 0.03401367 9.65229492 0.04239258 10.97045898 0.05102539 C12.2537207 0.05553711 13.53698242 0.06004883 14.85913086 0.06469727 C18.04211921 0.07652994 21.22501661 0.09301471 24.40795898 0.11352539 C24.40795898 0.77352539 24.40795898 1.43352539 24.40795898 2.11352539 C23.3831543 2.10192383 22.35834961 2.09032227 21.30249023 2.07836914 C19.94181498 2.06898517 18.58113775 2.05988562 17.22045898 2.05102539 C16.54692383 2.04264648 15.87338867 2.03426758 15.17944336 2.02563477 C11.43414905 2.00736504 8.06438217 2.37164243 4.40795898 3.11352539 C2.09545898 2.17602539 2.09545898 2.17602539 0.40795898 1.11352539 C0.07795898 1.77352539 -0.25204102 2.43352539 -0.59204102 3.11352539 C-1.58204102 2.45352539 -2.57204102 1.79352539 -3.59204102 1.11352539 C-2.59204102 0.11352539 -2.59204102 0.11352539 0 0 Z " fill="#22A5E8" transform="translate(502.592041015625,604.886474609375)"/>
<path d="M0 0 C2.62133789 3.93200684 3.15909118 7.79818311 4.12109375 12.3828125 C4.41113281 13.24648437 4.70117188 14.11015625 5 15 C5.99 15.33 6.98 15.66 8 16 C8.12375 17.216875 8.2475 18.43375 8.375 19.6875 C8.69646525 22.36322548 9.11170094 24.27925234 10.125 26.8125 C11 29 11 29 10 32 C8.50608138 28.17225552 7.03258844 24.33695312 5.5625 20.5 C5.14162109 19.42234375 4.72074219 18.3446875 4.28710938 17.234375 C2.07273192 11.42384855 0.41488129 6.21567603 0 0 Z " fill="#0D96E0" transform="translate(159,92)"/>
<path d="M0 0 C1.04800781 -0.01933594 1.04800781 -0.01933594 2.1171875 -0.0390625 C3.87141463 -0.0425157 5.6251012 0.0642971 7.375 0.1875 C8.035 0.8475 8.695 1.5075 9.375 2.1875 C8.09625 2.14625 6.8175 2.105 5.5 2.0625 C3.35628508 1.94537127 3.35628508 1.94537127 1.375 2.1875 C0.715 2.8475 0.055 3.5075 -0.625 4.1875 C-1.11484375 3.86007812 -1.6046875 3.53265625 -2.109375 3.1953125 C-5.66769563 1.76977411 -9.10703011 1.97595652 -12.875 2.0625 C-13.62007813 2.07152344 -14.36515625 2.08054687 -15.1328125 2.08984375 C-16.96368059 2.11331642 -18.79438238 2.14918475 -20.625 2.1875 C-20.625 1.8575 -20.625 1.5275 -20.625 1.1875 C-13.75278476 0.45862869 -6.90786514 0.06257124 0 0 Z " fill="#33B7F0" transform="translate(470.625,604.8125)"/>
<path d="M0 0 C0.66 0.33 1.32 0.66 2 1 C2.06058594 2.27617188 2.12117188 3.55234375 2.18359375 4.8671875 C2.26799568 6.53647016 2.35264386 8.20574037 2.4375 9.875 C2.47681641 10.71675781 2.51613281 11.55851563 2.55664062 12.42578125 C2.59853516 13.23144531 2.64042969 14.03710938 2.68359375 14.8671875 C2.72025146 15.61081543 2.75690918 16.35444336 2.79467773 17.12060547 C2.89955865 19.08864312 2.89955865 19.08864312 4 21 C2.68 20.67 1.36 20.34 0 20 C-0.02703381 18.06257659 -0.04641125 16.12504521 -0.0625 14.1875 C-0.07410156 13.10855469 -0.08570312 12.02960937 -0.09765625 10.91796875 C0 8 0 8 1 5 C0.34 4.67 -0.32 4.34 -1 4 C-0.67 2.68 -0.34 1.36 0 0 Z " fill="#1E9BE0" transform="translate(27,586)"/>
<path d="M0 0 C2 4 2 4 2 8 C2.66 8.33 3.32 8.66 4 9 C4 12.3 4 15.6 4 19 C3.67 19 3.34 19 3 19 C2.67 16.03 2.34 13.06 2 10 C1.34 10 0.68 10 0 10 C0 6.7 0 3.4 0 0 Z " fill="#0B9CE5" transform="translate(520,363)"/>
<path d="M0 0 C1.26328125 0.01804687 2.5265625 0.03609375 3.828125 0.0546875 C4.79234375 0.07789063 5.7565625 0.10109375 6.75 0.125 C7.08 0.785 7.41 1.445 7.75 2.125 C1.23755792 2.82008823 -4.8010809 3.44409709 -11.25 2.125 C-7.54583874 -0.25090142 -4.32015427 -0.08000286 0 0 Z " fill="#0FF122" transform="translate(322.25,603.875)"/>
<path d="M0 0 C0.66 0 1.32 0 2 0 C2.93213141 6.26039609 3.20927172 11.02197063 1 17 C0.67 17 0.34 17 0 17 C0 11.39 0 5.78 0 0 Z " fill="#0899DC" transform="translate(27,16)"/>
<path d="M0 0 C1.875 0.5 1.875 0.5 4 2 C4.98494554 4.65177645 5.45912382 7.20547307 6 10 C3.66475218 7.74259377 1.81294927 5.7194239 0 3 C0 2.01 0 1.02 0 0 Z " fill="#06AAF3" transform="translate(180,147)"/>
<path d="M0 0 C0.79148437 -0.01417969 1.58296875 -0.02835938 2.3984375 -0.04296875 C4.625 0.1875 4.625 0.1875 7.625 2.1875 C4.71017222 2.99717438 3.16386783 3.40595993 0.3125 2.25 C-0.244375 1.899375 -0.80125 1.54875 -1.375 1.1875 C-1.705 1.8475 -2.035 2.5075 -2.375 3.1875 C-3.365 2.5275 -4.355 1.8675 -5.375 1.1875 C-3.79539731 -0.39210269 -2.17963184 0.01763456 0 0 Z " fill="#2CAFEF" transform="translate(504.375,604.8125)"/>
<path d="M0 0 C0.66 0.33 1.32 0.66 2 1 C2 4.3 2 7.6 2 11 C1.34 10.01 0.68 9.02 0 8 C0.33 7.01 0.66 6.02 1 5 C0.34 4.67 -0.32 4.34 -1 4 C-0.67 2.68 -0.34 1.36 0 0 Z " fill="#149CE6" transform="translate(27,586)"/>
<path d="M0 0 C0.33 0.66 0.66 1.32 1 2 C3.02463255 2.65213292 3.02463255 2.65213292 5 3 C5 3.66 5 4.32 5 5 C3.68528432 4.71848913 2.37324233 4.42446661 1.0625 4.125 C-0.03384766 3.88136719 -0.03384766 3.88136719 -1.15234375 3.6328125 C-3 3 -3 3 -4 1 C-2 0 -2 0 0 0 Z " fill="#0AF923" transform="translate(288,235)"/>
<path d="M0 0 C1.32 0 2.64 0 4 0 C3.67 0.66 3.34 1.32 3 2 C2.01 2 1.02 2 0 2 C0 1.34 0 0.68 0 0 Z " fill="#44F066" transform="translate(292,608)"/>
<path d="M0 0 C2.475 0.495 2.475 0.495 5 1 C4.01 1.495 4.01 1.495 3 2 C2.01 1.34 1.02 0.68 0 0 Z " fill="#4CE584" transform="translate(396,608)"/>
<path d="M0 0 C0.33 0 0.66 0 1 0 C1 1.65 1 3.3 1 5 C0.67 5 0.34 5 0 5 C0 3.35 0 1.7 0 0 Z " fill="#0A9FEA" transform="translate(528,412)"/>
<path d="M0 0 C0.99 0.33 1.98 0.66 3 1 C2.01 1 1.02 1 0 1 C0 0.67 0 0.34 0 0 Z " fill="#44F663" transform="translate(350,608)"/>
<path d="M0 0 C0.33 0.66 0.66 1.32 1 2 C0.01 1.67 -0.98 1.34 -2 1 C-1.34 0.67 -0.68 0.34 0 0 Z " fill="#43BAF2" transform="translate(79,607)"/>
<path d="M0 0 C1 4 1 4 1 4 Z " fill="#0A9FEB" transform="translate(528,423)"/>
<path d="M0 0 C1 4 1 4 1 4 Z " fill="#1AD336" transform="translate(527,239)"/>
<path d="M0 0 C3 1 3 1 3 1 Z " fill="#42BFEF" transform="translate(460,608)"/>
<path d="M0 0 C0.66 0 1.32 0 2 0 C1.67 0.66 1.34 1.32 1 2 C0.67 1.34 0.34 0.68 0 0 Z " fill="#4EB5E5" transform="translate(147,608)"/>
<path d="M0 0 C3 1 3 1 3 1 Z " fill="#45BAF1" transform="translate(60,608)"/>
<path d="" fill="#1CABF1" transform="translate(0,0)"/>
<path d="M0 0 C0.66 0.66 1.32 1.32 2 2 C1.34 2 0.68 2 0 2 C0 1.34 0 0.68 0 0 Z " fill="#13B3D2" transform="translate(258,401)"/>
<path d="" fill="#0F9FE6" transform="translate(0,0)"/>
<path d="" fill="#19CC39" transform="translate(0,0)"/>
<path d="M0 0 C3 1 3 1 3 1 Z " fill="#17BA2A" transform="translate(523,12)"/>
<path d="M0 0 C3 1 3 1 3 1 Z " fill="#1DDD2B" transform="translate(351,12)"/>
<path d="" fill="#45F565" transform="translate(0,0)"/>
<path d="M0 0 C2 1 2 1 2 1 Z " fill="#48F46A" transform="translate(375,609)"/>
<path d="" fill="#41F360" transform="translate(0,0)"/>
<path d="M0 0 C2 1 2 1 2 1 Z " fill="#41BCEF" transform="translate(478,608)"/>
<path d="M0 0 C2 1 2 1 2 1 Z " fill="#44BEEE" transform="translate(454,608)"/>
<path d="M0 0 C2 1 2 1 2 1 Z " fill="#44F761" transform="translate(364,608)"/>
<path d="M0 0 C2 1 2 1 2 1 Z " fill="#41F45E" transform="translate(327,608)"/>
<path d="M0 0 C2 1 2 1 2 1 Z " fill="#40F35E" transform="translate(316,608)"/>
<path d="M0 0 C2 1 2 1 2 1 Z " fill="#42F15F" transform="translate(302,608)"/>
<path d="M0 0 C2 1 2 1 2 1 Z " fill="#4DE471" transform="translate(278,608)"/>
<path d="" fill="#2C9CD1" transform="translate(0,0)"/>
<path d="" fill="#1A9CDE" transform="translate(0,0)"/>
<path d="" fill="#17A5F0" transform="translate(0,0)"/>
<path d="" fill="#14A5EE" transform="translate(0,0)"/>
<path d="" fill="#0AA0EC" transform="translate(0,0)"/>
<path d="" fill="#0AA0ED" transform="translate(0,0)"/>
<path d="" fill="#09A0EA" transform="translate(0,0)"/>
<path d="M0 0 C2 1 2 1 2 1 Z " fill="#13B0D3" transform="translate(258,399)"/>
<path d="M0 0 C2 1 2 1 2 1 Z " fill="#1BC2C3" transform="translate(445,267)"/>
<path d="" fill="#19D936" transform="translate(0,0)"/>
<path d="" fill="#19DD33" transform="translate(0,0)"/>
<path d="" fill="#17E034" transform="translate(0,0)"/>
<path d="" fill="#17E433" transform="translate(0,0)"/>
<path d="" fill="#0EA0E4" transform="translate(0,0)"/>
<path d="" fill="#17E432" transform="translate(0,0)"/>
<path d="" fill="#17E331" transform="translate(0,0)"/>
<path d="" fill="#17E132" transform="translate(0,0)"/>
<path d="" fill="#17E031" transform="translate(0,0)"/>
<path d="" fill="#0EA1E8" transform="translate(0,0)"/>
<path d="M0 0 C2 1 2 1 2 1 Z " fill="#1AE32E" transform="translate(472,12)"/>
<path d="M0 0 C2 1 2 1 2 1 Z " fill="#1CE42D" transform="translate(455,12)"/>
<path d="M0 0 C2 1 2 1 2 1 Z " fill="#1BE12D" transform="translate(398,12)"/>
<path d="M0 0 C2 1 2 1 2 1 Z " fill="#1BC92A" transform="translate(287,12)"/>
<path d="" fill="#61DDA0" transform="translate(0,0)"/>
<path d="" fill="#47F067" transform="translate(0,0)"/>
<path d="" fill="#4BBBF0" transform="translate(0,0)"/>
<path d="" fill="#4EE692" transform="translate(0,0)"/>
<path d="" fill="#49F077" transform="translate(0,0)"/>
<path d="" fill="#48F568" transform="translate(0,0)"/>
<path d="" fill="#44F964" transform="translate(0,0)"/>
<path d="" fill="#46F666" transform="translate(0,0)"/>
<path d="" fill="#46F566" transform="translate(0,0)"/>
<path d="" fill="#44F563" transform="translate(0,0)"/>
<path d="" fill="#45F464" transform="translate(0,0)"/>
<path d="" fill="#42F660" transform="translate(0,0)"/>
<path d="" fill="#44F169" transform="translate(0,0)"/>
<path d="" fill="#38A2D2" transform="translate(0,0)"/>
<path d="" fill="#44BAF1" transform="translate(0,0)"/>
<path d="" fill="#47C1F0" transform="translate(0,0)"/>
<path d="" fill="#47C0EC" transform="translate(0,0)"/>
<path d="" fill="#49C4DB" transform="translate(0,0)"/>
<path d="" fill="#46EF6E" transform="translate(0,0)"/>
<path d="" fill="#47F26A" transform="translate(0,0)"/>
<path d="" fill="#46F465" transform="translate(0,0)"/>
<path d="" fill="#44F563" transform="translate(0,0)"/>
<path d="" fill="#46ED68" transform="translate(0,0)"/>
<path d="" fill="#4BBAED" transform="translate(0,0)"/>
<path d="" fill="#48BCF2" transform="translate(0,0)"/>
<path d="" fill="#48BCF2" transform="translate(0,0)"/>
<path d="" fill="#47BCF3" transform="translate(0,0)"/>
<path d="" fill="#48BCF3" transform="translate(0,0)"/>
<path d="" fill="#47B4E4" transform="translate(0,0)"/>
<path d="" fill="#37B2EC" transform="translate(0,0)"/>
<path d="" fill="#1F9CD9" transform="translate(0,0)"/>
<path d="" fill="#2EADE9" transform="translate(0,0)"/>
<path d="" fill="#189CE1" transform="translate(0,0)"/>
<path d="" fill="#179DE2" transform="translate(0,0)"/>
<path d="" fill="#139FE6" transform="translate(0,0)"/>
<path d="" fill="#21AAF1" transform="translate(0,0)"/>
<path d="" fill="#1996DC" transform="translate(0,0)"/>
<path d="" fill="#1BA9ED" transform="translate(0,0)"/>
<path d="" fill="#18A7F0" transform="translate(0,0)"/>
<path d="" fill="#17A4F0" transform="translate(0,0)"/>
<path d="" fill="#15A6ED" transform="translate(0,0)"/>
<path d="" fill="#16A2EC" transform="translate(0,0)"/>
<path d="" fill="#10A2EC" transform="translate(0,0)"/>
<path d="" fill="#0F9EE9" transform="translate(0,0)"/>
<path d="" fill="#0FA0E9" transform="translate(0,0)"/>
<path d="" fill="#22B288" transform="translate(0,0)"/>
<path d="" fill="#0BA0E8" transform="translate(0,0)"/>
<path d="" fill="#0B9FEB" transform="translate(0,0)"/>
<path d="" fill="#0F9FE5" transform="translate(0,0)"/>
<path d="" fill="#0F9EE6" transform="translate(0,0)"/>
<path d="" fill="#0A9FED" transform="translate(0,0)"/>
<path d="" fill="#099EE9" transform="translate(0,0)"/>
<path d="" fill="#16A3D3" transform="translate(0,0)"/>
<path d="" fill="#11A2E4" transform="translate(0,0)"/>
<path d="" fill="#0AA1EC" transform="translate(0,0)"/>
<path d="" fill="#0EA6E5" transform="translate(0,0)"/>
<path d="" fill="#0FA6E6" transform="translate(0,0)"/>
<path d="" fill="#0FA6E7" transform="translate(0,0)"/>
<path d="" fill="#0FA6E6" transform="translate(0,0)"/>
<path d="" fill="#0CA0EC" transform="translate(0,0)"/>
<path d="" fill="#15ACD3" transform="translate(0,0)"/>
<path d="" fill="#11A4DD" transform="translate(0,0)"/>
<path d="" fill="#0B9FEA" transform="translate(0,0)"/>
<path d="" fill="#16AFDA" transform="translate(0,0)"/>
<path d="" fill="#0D9EE5" transform="translate(0,0)"/>
<path d="" fill="#14B0D4" transform="translate(0,0)"/>
<path d="" fill="#1BBCCD" transform="translate(0,0)"/>
<path d="" fill="#099EE7" transform="translate(0,0)"/>
<path d="" fill="#15B2C9" transform="translate(0,0)"/>
<path d="" fill="#0C9DE6" transform="translate(0,0)"/>
<path d="" fill="#1CD1A6" transform="translate(0,0)"/>
<path d="" fill="#1ACEB1" transform="translate(0,0)"/>
<path d="" fill="#0D9EE6" transform="translate(0,0)"/>
<path d="" fill="#0B9BE3" transform="translate(0,0)"/>
<path d="" fill="#0C9CE4" transform="translate(0,0)"/>
<path d="" fill="#10A1E5" transform="translate(0,0)"/>
<path d="" fill="#109DE6" transform="translate(0,0)"/>
<path d="" fill="#0E9FE5" transform="translate(0,0)"/>
<path d="" fill="#0E9AE0" transform="translate(0,0)"/>
<path d="" fill="#109CDB" transform="translate(0,0)"/>
<path d="" fill="#0EA0E3" transform="translate(0,0)"/>
<path d="" fill="#0E9FDD" transform="translate(0,0)"/>
<path d="" fill="#119DE0" transform="translate(0,0)"/>
<path d="" fill="#0E8EDB" transform="translate(0,0)"/>
<path d="" fill="#11A4E2" transform="translate(0,0)"/>
<path d="" fill="#11A8DE" transform="translate(0,0)"/>
<path d="" fill="#11A6E0" transform="translate(0,0)"/>
<path d="" fill="#17B4D7" transform="translate(0,0)"/>
<path d="" fill="#19BCCD" transform="translate(0,0)"/>
<path d="" fill="#24CAA3" transform="translate(0,0)"/>
<path d="" fill="#20CB4F" transform="translate(0,0)"/>
<path d="" fill="#1ED6A4" transform="translate(0,0)"/>
<path d="" fill="#20C543" transform="translate(0,0)"/>
<path d="" fill="#14A133" transform="translate(0,0)"/>
<path d="" fill="#1ABE3A" transform="translate(0,0)"/>
<path d="" fill="#16A32F" transform="translate(0,0)"/>
<path d="" fill="#1AC034" transform="translate(0,0)"/>
<path d="" fill="#16B131" transform="translate(0,0)"/>
<path d="" fill="#149B2A" transform="translate(0,0)"/>
<path d="" fill="#19DB33" transform="translate(0,0)"/>
<path d="" fill="#0B90DD" transform="translate(0,0)"/>
<path d="" fill="#1FC0B6" transform="translate(0,0)"/>
<path d="" fill="#0A8FDC" transform="translate(0,0)"/>
<path d="" fill="#15B1CE" transform="translate(0,0)"/>
<path d="" fill="#13A227" transform="translate(0,0)"/>
<path d="" fill="#15B0D3" transform="translate(0,0)"/>
<path d="" fill="#0B6EA9" transform="translate(0,0)"/>
<path d="" fill="#13A225" transform="translate(0,0)"/>
<path d="" fill="#16B72C" transform="translate(0,0)"/>
<path d="" fill="#17E133" transform="translate(0,0)"/>
<path d="" fill="#13AEDB" transform="translate(0,0)"/>
<path d="" fill="#14ADDB" transform="translate(0,0)"/>
<path d="" fill="#11A6DB" transform="translate(0,0)"/>
<path d="" fill="#12A7DF" transform="translate(0,0)"/>
<path d="" fill="#11A8E0" transform="translate(0,0)"/>
<path d="" fill="#19E133" transform="translate(0,0)"/>
<path d="" fill="#11A5E1" transform="translate(0,0)"/>
<path d="" fill="#17E234" transform="translate(0,0)"/>
<path d="" fill="#0B91DE" transform="translate(0,0)"/>
<path d="" fill="#15A725" transform="translate(0,0)"/>
<path d="" fill="#14A323" transform="translate(0,0)"/>
<path d="" fill="#1ACA2C" transform="translate(0,0)"/>
<path d="" fill="#10A4E6" transform="translate(0,0)"/>
<path d="" fill="#11A4E3" transform="translate(0,0)"/>
<path d="" fill="#18C62D" transform="translate(0,0)"/>
<path d="" fill="#18E432" transform="translate(0,0)"/>
<path d="" fill="#13A526" transform="translate(0,0)"/>
<path d="" fill="#17E132" transform="translate(0,0)"/>
<path d="" fill="#19CA2E" transform="translate(0,0)"/>
<path d="" fill="#0E88CE" transform="translate(0,0)"/>
<path d="" fill="#17E334" transform="translate(0,0)"/>
<path d="" fill="#1CCD30" transform="translate(0,0)"/>
<path d="" fill="#18E433" transform="translate(0,0)"/>
<path d="" fill="#18E330" transform="translate(0,0)"/>
<path d="" fill="#14A426" transform="translate(0,0)"/>
<path d="" fill="#0FA1E6" transform="translate(0,0)"/>
<path d="" fill="#1B9BAF" transform="translate(0,0)"/>
<path d="" fill="#0FA0E4" transform="translate(0,0)"/>
<path d="" fill="#16B32A" transform="translate(0,0)"/>
<path d="" fill="#0F9FE7" transform="translate(0,0)"/>
<path d="" fill="#0EA0E8" transform="translate(0,0)"/>
<path d="" fill="#16AE28" transform="translate(0,0)"/>
<path d="" fill="#18C52F" transform="translate(0,0)"/>
<path d="" fill="#109DDD" transform="translate(0,0)"/>
<path d="" fill="#0DA2E4" transform="translate(0,0)"/>
<path d="" fill="#19E332" transform="translate(0,0)"/>
<path d="" fill="#19C42D" transform="translate(0,0)"/>
<path d="" fill="#19D430" transform="translate(0,0)"/>
<path d="" fill="#19E12F" transform="translate(0,0)"/>
<path d="" fill="#1ACC2F" transform="translate(0,0)"/>
<path d="" fill="#15AF28" transform="translate(0,0)"/>
<path d="" fill="#14A125" transform="translate(0,0)"/>
<path d="" fill="#18B22A" transform="translate(0,0)"/>
<path d="" fill="#0D9EE5" transform="translate(0,0)"/>
<path d="" fill="#19E233" transform="translate(0,0)"/>
<path d="" fill="#0F9FE9" transform="translate(0,0)"/>
<path d="" fill="#1093DA" transform="translate(0,0)"/>
<path d="" fill="#0E9DE3" transform="translate(0,0)"/>
<path d="" fill="#0E9BE0" transform="translate(0,0)"/>
<path d="" fill="#1099E0" transform="translate(0,0)"/>
<path d="" fill="#0F9EE5" transform="translate(0,0)"/>
<path d="" fill="#149D24" transform="translate(0,0)"/>
<path d="" fill="#1AE030" transform="translate(0,0)"/>
<path d="" fill="#0D9CE6" transform="translate(0,0)"/>
<path d="" fill="#1AE132" transform="translate(0,0)"/>
<path d="" fill="#20DB40" transform="translate(0,0)"/>
<path d="" fill="#0C9FE8" transform="translate(0,0)"/>
<path d="" fill="#1AE132" transform="translate(0,0)"/>
<path d="" fill="#19C02A" transform="translate(0,0)"/>
<path d="" fill="#1296DA" transform="translate(0,0)"/>
<path d="" fill="#0E9BE5" transform="translate(0,0)"/>
<path d="" fill="#16AB25" transform="translate(0,0)"/>
<path d="" fill="#0E9BE5" transform="translate(0,0)"/>
<path d="" fill="#109AE3" transform="translate(0,0)"/>
<path d="" fill="#149923" transform="translate(0,0)"/>
<path d="" fill="#20D23B" transform="translate(0,0)"/>
<path d="" fill="#0E9AE4" transform="translate(0,0)"/>
<path d="" fill="#0E9AE3" transform="translate(0,0)"/>
<path d="" fill="#0F9BE3" transform="translate(0,0)"/>
<path d="" fill="#1A756D" transform="translate(0,0)"/>
<path d="" fill="#149520" transform="translate(0,0)"/>
<path d="" fill="#1187C6" transform="translate(0,0)"/>
<path d="" fill="#0D8BCC" transform="translate(0,0)"/>
<path d="" fill="#11871B" transform="translate(0,0)"/>
<path d="" fill="#17C52B" transform="translate(0,0)"/>
<path d="" fill="#0D7FB6" transform="translate(0,0)"/>
<path d="" fill="#19CE2B" transform="translate(0,0)"/>
<path d="" fill="#19D42D" transform="translate(0,0)"/>
<path d="" fill="#1BDD2F" transform="translate(0,0)"/>
<path d="" fill="#1BDF2F" transform="translate(0,0)"/>
<path d="" fill="#1BE32E" transform="translate(0,0)"/>
<path d="" fill="#1CE12F" transform="translate(0,0)"/>
<path d="" fill="#1CE52F" transform="translate(0,0)"/>
<path d="" fill="#1CE62E" transform="translate(0,0)"/>
<path d="" fill="#1DE32D" transform="translate(0,0)"/>
<path d="" fill="#1EE42F" transform="translate(0,0)"/>
<path d="" fill="#1AE52D" transform="translate(0,0)"/>
<path d="" fill="#1AE42D" transform="translate(0,0)"/>
<path d="" fill="#1DE42C" transform="translate(0,0)"/>
<path d="" fill="#1BE22A" transform="translate(0,0)"/>
<path d="" fill="#1AE22D" transform="translate(0,0)"/>
<path d="" fill="#1DE12E" transform="translate(0,0)"/>
<path d="" fill="#1DDF2B" transform="translate(0,0)"/>
<path d="" fill="#1DE129" transform="translate(0,0)"/>
<path d="" fill="#1EE12C" transform="translate(0,0)"/>
<path d="" fill="#1CDF2C" transform="translate(0,0)"/>
<path d="" fill="#1EDF2D" transform="translate(0,0)"/>
<path d="" fill="#1DE02C" transform="translate(0,0)"/>
<path d="" fill="#1EDE2C" transform="translate(0,0)"/>
<path d="" fill="#1EDF2C" transform="translate(0,0)"/>
<path d="" fill="#1FDF2C" transform="translate(0,0)"/>
<path d="" fill="#1CDC2B" transform="translate(0,0)"/>
<path d="" fill="#1DDC2E" transform="translate(0,0)"/>
<path d="" fill="#1DD92D" transform="translate(0,0)"/>
<path d="" fill="#1CD72D" transform="translate(0,0)"/>
<path d="" fill="#1CD02B" transform="translate(0,0)"/>
<path d="" fill="#1DCD2B" transform="translate(0,0)"/>
<path d="" fill="#1ABA28" transform="translate(0,0)"/>
<path d="" fill="#0D7BAE" transform="translate(0,0)"/>
<path d="" fill="#0C8FD5" transform="translate(0,0)"/>
<path d="" fill="#0B93DA" transform="translate(0,0)"/>
<path d="" fill="#18CA2C" transform="translate(0,0)"/>
<path d="" fill="#1ADF2E" transform="translate(0,0)"/>
<path d="" fill="#176B41" transform="translate(0,0)"/>
<path d="" fill="#094C6B" transform="translate(0,0)"/>
<path d="" fill="#18C027" transform="translate(0,0)"/>
<path d="" fill="#1BB32A" transform="translate(0,0)"/>
<path d="" fill="#19C42A" transform="translate(0,0)"/>
</svg>
